<mxfile host="app.diagrams.net" modified="2022-06-16T17:23:02.611Z" agent="5.0 (Windows)" etag="Ceuz0q9QPRut39Jm1Jy5" version="20.0.1" type="github">
  <diagram id="aKo4nkEPc6Qk0W20-_ik" name="Page-1">
    <mxGraphModel dx="1221" dy="734" grid="1" gridSize="10" guides="1" tooltips="1" connect="1" arrows="1" fold="1" page="1" pageScale="1" pageWidth="680" pageHeight="680" math="0" shadow="0">
      <root>
        <mxCell id="0" />
        <mxCell id="1" parent="0" />
        <mxCell id="4rk6-c169mp4JHar0VSb-52" value="" style="endArrow=none;html=1;rounded=0;exitX=0;exitY=0;exitDx=0;exitDy=0;strokeColor=#CC0000;" edge="1" parent="1" source="4rk6-c169mp4JHar0VSb-40">
          <mxGeometry width="50" height="50" relative="1" as="geometry">
            <mxPoint x="45" y="290" as="sourcePoint" />
            <mxPoint x="95" y="240" as="targetPoint" />
          </mxGeometry>
        </mxCell>
        <mxCell id="4rk6-c169mp4JHar0VSb-56" value="" style="endArrow=none;html=1;rounded=0;exitX=0;exitY=0;exitDx=0;exitDy=0;entryX=0.75;entryY=0;entryDx=0;entryDy=0;strokeColor=#CC0000;" edge="1" parent="1" target="4rk6-c169mp4JHar0VSb-41">
          <mxGeometry width="50" height="50" relative="1" as="geometry">
            <mxPoint x="120" y="269.8" as="sourcePoint" />
            <mxPoint x="95" y="269.8" as="targetPoint" />
          </mxGeometry>
        </mxCell>
        <mxCell id="4rk6-c169mp4JHar0VSb-59" value="" style="endArrow=none;html=1;rounded=0;strokeColor=#CC0000;" edge="1" parent="1">
          <mxGeometry width="50" height="50" relative="1" as="geometry">
            <mxPoint x="120" y="300" as="sourcePoint" />
            <mxPoint x="95" y="300" as="targetPoint" />
          </mxGeometry>
        </mxCell>
        <mxCell id="4rk6-c169mp4JHar0VSb-1" value="12V Cells" style="rounded=1;whiteSpace=wrap;html=1;" vertex="1" parent="1">
          <mxGeometry x="520" y="360" width="120" height="280" as="geometry" />
        </mxCell>
        <mxCell id="4rk6-c169mp4JHar0VSb-2" value="9V Cells" style="rounded=1;whiteSpace=wrap;html=1;" vertex="1" parent="1">
          <mxGeometry x="520" y="40" width="120" height="280" as="geometry" />
        </mxCell>
        <mxCell id="4rk6-c169mp4JHar0VSb-25" style="edgeStyle=orthogonalEdgeStyle;rounded=0;orthogonalLoop=1;jettySize=auto;html=1;exitX=1;exitY=0.25;exitDx=0;exitDy=0;entryX=0;entryY=0.071;entryDx=0;entryDy=0;entryPerimeter=0;endArrow=none;endFill=0;" edge="1" parent="1" source="4rk6-c169mp4JHar0VSb-4" target="4rk6-c169mp4JHar0VSb-1">
          <mxGeometry relative="1" as="geometry" />
        </mxCell>
        <mxCell id="4rk6-c169mp4JHar0VSb-4" value="H bridge motor driver" style="whiteSpace=wrap;html=1;aspect=fixed;" vertex="1" parent="1">
          <mxGeometry x="360" y="360" width="80" height="80" as="geometry" />
        </mxCell>
        <mxCell id="4rk6-c169mp4JHar0VSb-5" value="H bridge motor driver" style="whiteSpace=wrap;html=1;aspect=fixed;" vertex="1" parent="1">
          <mxGeometry x="360" y="560" width="80" height="80" as="geometry" />
        </mxCell>
        <mxCell id="4rk6-c169mp4JHar0VSb-15" style="edgeStyle=orthogonalEdgeStyle;rounded=0;orthogonalLoop=1;jettySize=auto;html=1;exitX=0;exitY=0.5;exitDx=0;exitDy=0;entryX=0;entryY=0;entryDx=0;entryDy=0;endArrow=none;endFill=0;" edge="1" parent="1" source="4rk6-c169mp4JHar0VSb-6" target="4rk6-c169mp4JHar0VSb-10">
          <mxGeometry relative="1" as="geometry" />
        </mxCell>
        <mxCell id="4rk6-c169mp4JHar0VSb-21" style="edgeStyle=orthogonalEdgeStyle;rounded=0;orthogonalLoop=1;jettySize=auto;html=1;exitX=1;exitY=0.25;exitDx=0;exitDy=0;endArrow=none;endFill=0;entryX=0;entryY=0.429;entryDx=0;entryDy=0;entryPerimeter=0;" edge="1" parent="1" source="4rk6-c169mp4JHar0VSb-6" target="4rk6-c169mp4JHar0VSb-1">
          <mxGeometry relative="1" as="geometry">
            <mxPoint x="510" y="480.2222222222222" as="targetPoint" />
          </mxGeometry>
        </mxCell>
        <mxCell id="4rk6-c169mp4JHar0VSb-6" value="Servo regulator and control passthrough" style="whiteSpace=wrap;html=1;aspect=fixed;" vertex="1" parent="1">
          <mxGeometry x="120" y="460" width="80" height="80" as="geometry" />
        </mxCell>
        <mxCell id="4rk6-c169mp4JHar0VSb-7" value="" style="ellipse;whiteSpace=wrap;html=1;aspect=fixed;" vertex="1" parent="1">
          <mxGeometry x="260" y="360" width="80" height="80" as="geometry" />
        </mxCell>
        <mxCell id="4rk6-c169mp4JHar0VSb-29" style="edgeStyle=orthogonalEdgeStyle;rounded=0;orthogonalLoop=1;jettySize=auto;html=1;exitX=1;exitY=0;exitDx=0;exitDy=0;endArrow=none;endFill=0;dashed=1;entryX=0;entryY=0.153;entryDx=0;entryDy=0;entryPerimeter=0;" edge="1" parent="1" source="4rk6-c169mp4JHar0VSb-8" target="4rk6-c169mp4JHar0VSb-5">
          <mxGeometry relative="1" as="geometry" />
        </mxCell>
        <mxCell id="4rk6-c169mp4JHar0VSb-31" style="edgeStyle=orthogonalEdgeStyle;rounded=0;orthogonalLoop=1;jettySize=auto;html=1;exitX=1;exitY=1;exitDx=0;exitDy=0;entryX=-0.006;entryY=0.847;entryDx=0;entryDy=0;entryPerimeter=0;dashed=1;endArrow=none;endFill=0;" edge="1" parent="1" source="4rk6-c169mp4JHar0VSb-8" target="4rk6-c169mp4JHar0VSb-5">
          <mxGeometry relative="1" as="geometry" />
        </mxCell>
        <mxCell id="4rk6-c169mp4JHar0VSb-8" value="" style="ellipse;whiteSpace=wrap;html=1;aspect=fixed;" vertex="1" parent="1">
          <mxGeometry x="260" y="560" width="80" height="80" as="geometry" />
        </mxCell>
        <mxCell id="4rk6-c169mp4JHar0VSb-11" style="edgeStyle=orthogonalEdgeStyle;rounded=0;orthogonalLoop=1;jettySize=auto;html=1;exitX=1;exitY=1;exitDx=0;exitDy=0;entryX=0;entryY=0.25;entryDx=0;entryDy=0;endArrow=none;endFill=0;" edge="1" parent="1" source="4rk6-c169mp4JHar0VSb-9" target="4rk6-c169mp4JHar0VSb-6">
          <mxGeometry relative="1" as="geometry">
            <Array as="points">
              <mxPoint x="108" y="480" />
            </Array>
          </mxGeometry>
        </mxCell>
        <mxCell id="4rk6-c169mp4JHar0VSb-12" style="edgeStyle=orthogonalEdgeStyle;rounded=0;orthogonalLoop=1;jettySize=auto;html=1;exitX=0.5;exitY=1;exitDx=0;exitDy=0;endArrow=none;endFill=0;entryX=0.006;entryY=0.373;entryDx=0;entryDy=0;entryPerimeter=0;" edge="1" parent="1" source="4rk6-c169mp4JHar0VSb-9" target="4rk6-c169mp4JHar0VSb-6">
          <mxGeometry relative="1" as="geometry">
            <mxPoint x="110" y="490" as="targetPoint" />
            <Array as="points">
              <mxPoint x="80" y="490" />
              <mxPoint x="118" y="490" />
            </Array>
          </mxGeometry>
        </mxCell>
        <mxCell id="4rk6-c169mp4JHar0VSb-14" style="edgeStyle=orthogonalEdgeStyle;rounded=0;orthogonalLoop=1;jettySize=auto;html=1;exitX=0;exitY=1;exitDx=0;exitDy=0;entryX=0;entryY=0.5;entryDx=0;entryDy=0;endArrow=none;endFill=0;" edge="1" parent="1" source="4rk6-c169mp4JHar0VSb-9" target="4rk6-c169mp4JHar0VSb-6">
          <mxGeometry relative="1" as="geometry" />
        </mxCell>
        <mxCell id="4rk6-c169mp4JHar0VSb-9" value="" style="ellipse;whiteSpace=wrap;html=1;aspect=fixed;" vertex="1" parent="1">
          <mxGeometry x="40" y="360" width="80" height="80" as="geometry" />
        </mxCell>
        <mxCell id="4rk6-c169mp4JHar0VSb-17" style="edgeStyle=orthogonalEdgeStyle;rounded=0;orthogonalLoop=1;jettySize=auto;html=1;exitX=0.5;exitY=0;exitDx=0;exitDy=0;entryX=0;entryY=0.625;entryDx=0;entryDy=0;entryPerimeter=0;endArrow=none;endFill=0;" edge="1" parent="1" source="4rk6-c169mp4JHar0VSb-10" target="4rk6-c169mp4JHar0VSb-6">
          <mxGeometry relative="1" as="geometry" />
        </mxCell>
        <mxCell id="4rk6-c169mp4JHar0VSb-19" style="edgeStyle=orthogonalEdgeStyle;rounded=0;orthogonalLoop=1;jettySize=auto;html=1;exitX=1;exitY=0;exitDx=0;exitDy=0;entryX=0;entryY=0.75;entryDx=0;entryDy=0;endArrow=none;endFill=0;" edge="1" parent="1" source="4rk6-c169mp4JHar0VSb-10" target="4rk6-c169mp4JHar0VSb-6">
          <mxGeometry relative="1" as="geometry">
            <Array as="points">
              <mxPoint x="108" y="520" />
            </Array>
          </mxGeometry>
        </mxCell>
        <mxCell id="4rk6-c169mp4JHar0VSb-10" value="" style="ellipse;whiteSpace=wrap;html=1;aspect=fixed;" vertex="1" parent="1">
          <mxGeometry x="40" y="560" width="80" height="80" as="geometry" />
        </mxCell>
        <mxCell id="4rk6-c169mp4JHar0VSb-23" style="edgeStyle=orthogonalEdgeStyle;rounded=0;orthogonalLoop=1;jettySize=auto;html=1;exitX=1;exitY=0.25;exitDx=0;exitDy=0;endArrow=none;endFill=0;entryX=0;entryY=0.429;entryDx=0;entryDy=0;entryPerimeter=0;" edge="1" parent="1">
          <mxGeometry relative="1" as="geometry">
            <mxPoint x="520" y="520.02" as="targetPoint" />
            <mxPoint x="200" y="519.9" as="sourcePoint" />
            <Array as="points">
              <mxPoint x="440" y="520" />
              <mxPoint x="440" y="520" />
            </Array>
          </mxGeometry>
        </mxCell>
        <mxCell id="4rk6-c169mp4JHar0VSb-26" style="edgeStyle=orthogonalEdgeStyle;rounded=0;orthogonalLoop=1;jettySize=auto;html=1;exitX=1;exitY=0.25;exitDx=0;exitDy=0;entryX=0;entryY=0.071;entryDx=0;entryDy=0;entryPerimeter=0;endArrow=none;endFill=0;" edge="1" parent="1">
          <mxGeometry relative="1" as="geometry">
            <mxPoint x="440" y="420.09" as="sourcePoint" />
            <mxPoint x="520" y="419.96999999999997" as="targetPoint" />
            <Array as="points">
              <mxPoint x="500" y="420" />
              <mxPoint x="500" y="420" />
            </Array>
          </mxGeometry>
        </mxCell>
        <mxCell id="4rk6-c169mp4JHar0VSb-27" style="edgeStyle=orthogonalEdgeStyle;rounded=0;orthogonalLoop=1;jettySize=auto;html=1;exitX=1;exitY=0.25;exitDx=0;exitDy=0;entryX=0;entryY=0.071;entryDx=0;entryDy=0;entryPerimeter=0;endArrow=none;endFill=0;" edge="1" parent="1">
          <mxGeometry relative="1" as="geometry">
            <mxPoint x="440" y="579.8199999999999" as="sourcePoint" />
            <mxPoint x="520" y="579.7" as="targetPoint" />
            <Array as="points">
              <mxPoint x="520" y="580" />
            </Array>
          </mxGeometry>
        </mxCell>
        <mxCell id="4rk6-c169mp4JHar0VSb-28" style="edgeStyle=orthogonalEdgeStyle;rounded=0;orthogonalLoop=1;jettySize=auto;html=1;exitX=1;exitY=0.25;exitDx=0;exitDy=0;entryX=0;entryY=0.071;entryDx=0;entryDy=0;entryPerimeter=0;endArrow=none;endFill=0;" edge="1" parent="1">
          <mxGeometry relative="1" as="geometry">
            <mxPoint x="440" y="619.9099999999999" as="sourcePoint" />
            <mxPoint x="520" y="619.79" as="targetPoint" />
            <Array as="points">
              <mxPoint x="500" y="619.8199999999999" />
              <mxPoint x="500" y="619.8199999999999" />
            </Array>
          </mxGeometry>
        </mxCell>
        <mxCell id="4rk6-c169mp4JHar0VSb-32" style="edgeStyle=orthogonalEdgeStyle;rounded=0;orthogonalLoop=1;jettySize=auto;html=1;exitX=1;exitY=0;exitDx=0;exitDy=0;endArrow=none;endFill=0;dashed=1;entryX=0;entryY=0.153;entryDx=0;entryDy=0;entryPerimeter=0;" edge="1" parent="1">
          <mxGeometry relative="1" as="geometry">
            <mxPoint x="328.2842712474619" y="371.7157287525381" as="sourcePoint" />
            <mxPoint x="360" y="372.24" as="targetPoint" />
          </mxGeometry>
        </mxCell>
        <mxCell id="4rk6-c169mp4JHar0VSb-33" style="edgeStyle=orthogonalEdgeStyle;rounded=0;orthogonalLoop=1;jettySize=auto;html=1;exitX=1;exitY=1;exitDx=0;exitDy=0;entryX=-0.006;entryY=0.847;entryDx=0;entryDy=0;entryPerimeter=0;dashed=1;endArrow=none;endFill=0;" edge="1" parent="1">
          <mxGeometry relative="1" as="geometry">
            <mxPoint x="328.2842712474619" y="428.2842712474619" as="sourcePoint" />
            <mxPoint x="359.52" y="427.76" as="targetPoint" />
          </mxGeometry>
        </mxCell>
        <mxCell id="4rk6-c169mp4JHar0VSb-35" value="&lt;div&gt;&lt;br&gt;&lt;/div&gt;&lt;div&gt;&lt;br&gt;&lt;/div&gt;&lt;div&gt;&lt;br&gt;&lt;/div&gt;&lt;div&gt;&lt;br&gt;&lt;/div&gt;&lt;div&gt;&lt;br&gt;&lt;/div&gt;&lt;div&gt;&lt;br&gt;&lt;/div&gt;&lt;div&gt;&lt;br&gt;&lt;/div&gt;&lt;div&gt;&lt;br&gt;&lt;/div&gt;&lt;div&gt;&lt;br&gt;&lt;/div&gt;&lt;div&gt;&lt;br&gt;&lt;/div&gt;&lt;div&gt;Blue Pill Mounting board&lt;/div&gt;" style="rounded=0;whiteSpace=wrap;html=1;" vertex="1" parent="1">
          <mxGeometry x="360" y="140" width="120" height="180" as="geometry" />
        </mxCell>
        <mxCell id="4rk6-c169mp4JHar0VSb-37" style="edgeStyle=none;rounded=0;orthogonalLoop=1;jettySize=auto;html=1;exitX=1;exitY=0.75;exitDx=0;exitDy=0;endArrow=none;endFill=0;" edge="1" parent="1" source="4rk6-c169mp4JHar0VSb-36">
          <mxGeometry relative="1" as="geometry">
            <mxPoint x="520" y="100" as="targetPoint" />
          </mxGeometry>
        </mxCell>
        <mxCell id="4rk6-c169mp4JHar0VSb-36" value="3V3/5V regulator" style="whiteSpace=wrap;html=1;aspect=fixed;" vertex="1" parent="1">
          <mxGeometry x="380" y="40" width="80" height="80" as="geometry" />
        </mxCell>
        <mxCell id="4rk6-c169mp4JHar0VSb-38" style="edgeStyle=none;rounded=0;orthogonalLoop=1;jettySize=auto;html=1;exitX=1;exitY=0.25;exitDx=0;exitDy=0;endArrow=none;endFill=0;" edge="1" parent="1" source="4rk6-c169mp4JHar0VSb-36">
          <mxGeometry relative="1" as="geometry">
            <mxPoint x="480" y="60" as="sourcePoint" />
            <mxPoint x="520" y="60" as="targetPoint" />
          </mxGeometry>
        </mxCell>
        <mxCell id="4rk6-c169mp4JHar0VSb-39" value="Blue Pill" style="rounded=1;whiteSpace=wrap;html=1;" vertex="1" parent="1">
          <mxGeometry x="370" y="150" width="100" height="130" as="geometry" />
        </mxCell>
        <mxCell id="4rk6-c169mp4JHar0VSb-40" value="Sonar Distribution Board" style="whiteSpace=wrap;html=1;aspect=fixed;" vertex="1" parent="1">
          <mxGeometry x="120" y="240" width="80" height="80" as="geometry" />
        </mxCell>
        <mxCell id="4rk6-c169mp4JHar0VSb-41" value="HFSS-R" style="rounded=1;whiteSpace=wrap;html=1;" vertex="1" parent="1">
          <mxGeometry x="40" y="270" width="60" height="20" as="geometry" />
        </mxCell>
        <mxCell id="4rk6-c169mp4JHar0VSb-42" value="RFSS" style="rounded=1;whiteSpace=wrap;html=1;" vertex="1" parent="1">
          <mxGeometry x="40" y="300" width="60" height="20" as="geometry" />
        </mxCell>
        <mxCell id="4rk6-c169mp4JHar0VSb-43" value="HFSS-L" style="rounded=1;whiteSpace=wrap;html=1;" vertex="1" parent="1">
          <mxGeometry x="40" y="240" width="60" height="20" as="geometry" />
        </mxCell>
        <mxCell id="4rk6-c169mp4JHar0VSb-53" value="" style="endArrow=none;html=1;rounded=0;exitX=0;exitY=0;exitDx=0;exitDy=0;entryX=0.921;entryY=0.999;entryDx=0;entryDy=0;entryPerimeter=0;strokeColor=#000000;" edge="1" parent="1" target="4rk6-c169mp4JHar0VSb-43">
          <mxGeometry width="50" height="50" relative="1" as="geometry">
            <mxPoint x="120" y="260" as="sourcePoint" />
            <mxPoint x="100" y="260.11" as="targetPoint" />
          </mxGeometry>
        </mxCell>
        <mxCell id="4rk6-c169mp4JHar0VSb-55" value="" style="shape=link;html=1;rounded=0;endArrow=none;endFill=0;exitX=1;exitY=0.5;exitDx=0;exitDy=0;strokeColor=#000066;" edge="1" parent="1" source="4rk6-c169mp4JHar0VSb-43">
          <mxGeometry width="100" relative="1" as="geometry">
            <mxPoint x="20" y="249.89" as="sourcePoint" />
            <mxPoint x="120" y="249.89" as="targetPoint" />
          </mxGeometry>
        </mxCell>
        <mxCell id="4rk6-c169mp4JHar0VSb-57" value="" style="endArrow=none;html=1;rounded=0;entryX=0.75;entryY=1;entryDx=0;entryDy=0;strokeColor=#000000;" edge="1" parent="1" target="4rk6-c169mp4JHar0VSb-41">
          <mxGeometry width="50" height="50" relative="1" as="geometry">
            <mxPoint x="120" y="290" as="sourcePoint" />
            <mxPoint x="95.25999999999999" y="289.78" as="targetPoint" />
          </mxGeometry>
        </mxCell>
        <mxCell id="4rk6-c169mp4JHar0VSb-58" value="" style="shape=link;html=1;rounded=0;endArrow=none;endFill=0;entryX=0;entryY=0.5;entryDx=0;entryDy=0;strokeColor=#000066;" edge="1" parent="1" target="4rk6-c169mp4JHar0VSb-40">
          <mxGeometry width="100" relative="1" as="geometry">
            <mxPoint x="100" y="280" as="sourcePoint" />
            <mxPoint x="120" y="279.69" as="targetPoint" />
          </mxGeometry>
        </mxCell>
        <mxCell id="4rk6-c169mp4JHar0VSb-60" value="" style="endArrow=none;html=1;rounded=0;entryX=0.75;entryY=1;entryDx=0;entryDy=0;strokeColor=#000000;" edge="1" parent="1" target="4rk6-c169mp4JHar0VSb-42">
          <mxGeometry width="50" height="50" relative="1" as="geometry">
            <mxPoint x="120" y="320" as="sourcePoint" />
            <mxPoint x="95.25999999999999" y="319.78" as="targetPoint" />
          </mxGeometry>
        </mxCell>
        <mxCell id="4rk6-c169mp4JHar0VSb-61" value="" style="shape=link;html=1;rounded=0;endArrow=none;endFill=0;strokeColor=#000066;" edge="1" parent="1">
          <mxGeometry width="100" relative="1" as="geometry">
            <mxPoint x="100" y="310" as="sourcePoint" />
            <mxPoint x="120" y="310" as="targetPoint" />
          </mxGeometry>
        </mxCell>
        <mxCell id="4rk6-c169mp4JHar0VSb-63" value="Sonar Platform Servo" style="rounded=1;whiteSpace=wrap;html=1;" vertex="1" parent="1">
          <mxGeometry x="120" y="330" width="80" height="30" as="geometry" />
        </mxCell>
        <mxCell id="4rk6-c169mp4JHar0VSb-64" value="3V3" style="endArrow=none;html=1;rounded=0;entryX=0;entryY=1;entryDx=0;entryDy=0;strokeColor=#CC0000;fontSize=8;" edge="1" parent="1">
          <mxGeometry width="50" height="50" relative="1" as="geometry">
            <mxPoint x="200" y="309.8" as="sourcePoint" />
            <mxPoint x="360" y="309.8" as="targetPoint" />
          </mxGeometry>
        </mxCell>
        <mxCell id="4rk6-c169mp4JHar0VSb-66" value="GND" style="endArrow=none;html=1;rounded=0;entryX=0;entryY=1;entryDx=0;entryDy=0;fontSize=8;" edge="1" parent="1">
          <mxGeometry width="50" height="50" relative="1" as="geometry">
            <mxPoint x="200" y="299.56" as="sourcePoint" />
            <mxPoint x="360" y="299.56" as="targetPoint" />
          </mxGeometry>
        </mxCell>
        <mxCell id="4rk6-c169mp4JHar0VSb-67" value="RFSS Trig" style="endArrow=none;html=1;rounded=0;entryX=0;entryY=1;entryDx=0;entryDy=0;strokeColor=#000066;fontSize=8;" edge="1" parent="1">
          <mxGeometry width="50" height="50" relative="1" as="geometry">
            <mxPoint x="200" y="289.8" as="sourcePoint" />
            <mxPoint x="360" y="289.8" as="targetPoint" />
          </mxGeometry>
        </mxCell>
        <mxCell id="4rk6-c169mp4JHar0VSb-68" value="HFSS-R Trig" style="endArrow=none;html=1;rounded=0;entryX=0;entryY=1;entryDx=0;entryDy=0;strokeColor=#000066;fontSize=8;" edge="1" parent="1">
          <mxGeometry width="50" height="50" relative="1" as="geometry">
            <mxPoint x="200" y="279.8" as="sourcePoint" />
            <mxPoint x="360" y="279.8" as="targetPoint" />
          </mxGeometry>
        </mxCell>
        <mxCell id="4rk6-c169mp4JHar0VSb-69" value="HFSS-L Trig" style="endArrow=none;html=1;rounded=0;entryX=0;entryY=1;entryDx=0;entryDy=0;strokeColor=#000066;fontSize=8;" edge="1" parent="1">
          <mxGeometry width="50" height="50" relative="1" as="geometry">
            <mxPoint x="200" y="269.56" as="sourcePoint" />
            <mxPoint x="360" y="269.56" as="targetPoint" />
          </mxGeometry>
        </mxCell>
        <mxCell id="4rk6-c169mp4JHar0VSb-70" value="Common Echo" style="endArrow=none;html=1;rounded=0;entryX=0;entryY=1;entryDx=0;entryDy=0;strokeColor=#000066;fontSize=8;" edge="1" parent="1">
          <mxGeometry width="50" height="50" relative="1" as="geometry">
            <mxPoint x="200" y="259.8" as="sourcePoint" />
            <mxPoint x="360" y="259.8" as="targetPoint" />
          </mxGeometry>
        </mxCell>
        <mxCell id="4rk6-c169mp4JHar0VSb-71" value="Servo Control" style="endArrow=none;html=1;rounded=0;entryX=0;entryY=1;entryDx=0;entryDy=0;strokeColor=#000066;fontSize=8;" edge="1" parent="1">
          <mxGeometry width="50" height="50" relative="1" as="geometry">
            <mxPoint x="200" y="249.8" as="sourcePoint" />
            <mxPoint x="360" y="249.8" as="targetPoint" />
          </mxGeometry>
        </mxCell>
        <mxCell id="4rk6-c169mp4JHar0VSb-75" value="" style="endArrow=none;html=1;rounded=0;fontSize=8;strokeColor=#000066;exitX=0.5;exitY=0;exitDx=0;exitDy=0;" edge="1" parent="1">
          <mxGeometry width="50" height="50" relative="1" as="geometry">
            <mxPoint x="159.95" y="330" as="sourcePoint" />
            <mxPoint x="159.95" y="320" as="targetPoint" />
          </mxGeometry>
        </mxCell>
        <mxCell id="4rk6-c169mp4JHar0VSb-77" value="" style="endArrow=none;html=1;rounded=0;fontSize=8;strokeColor=#000000;exitX=0.5;exitY=0;exitDx=0;exitDy=0;" edge="1" parent="1">
          <mxGeometry width="50" height="50" relative="1" as="geometry">
            <mxPoint x="179.95" y="330" as="sourcePoint" />
            <mxPoint x="179.95" y="320" as="targetPoint" />
          </mxGeometry>
        </mxCell>
        <mxCell id="4rk6-c169mp4JHar0VSb-78" value="" style="endArrow=none;html=1;rounded=0;fontSize=8;strokeColor=#CC0000;exitX=0.5;exitY=0;exitDx=0;exitDy=0;" edge="1" parent="1">
          <mxGeometry width="50" height="50" relative="1" as="geometry">
            <mxPoint x="139.95" y="330" as="sourcePoint" />
            <mxPoint x="139.95" y="320" as="targetPoint" />
          </mxGeometry>
        </mxCell>
      </root>
    </mxGraphModel>
  </diagram>
</mxfile>
